MFEM mesh v1.0

dimension
2

elements
32
15 2 0 16 1
15 2 1 16 17
15 2 1 17 2
15 2 2 17 18
15 2 2 18 3
15 2 3 18 19
15 2 3 19 4
15 2 4 19 20
15 2 4 20 5
15 2 5 20 21
15 2 5 21 6
15 2 6 21 22
15 2 6 22 7
15 2 7 22 23
15 2 7 23 8
15 2 8 23 24
15 2 8 24 9
15 2 9 24 25
15 2 9 25 10
15 2 10 25 26
15 2 10 26 11
15 2 11 26 27
15 2 11 27 12
15 2 12 27 28
15 2 12 28 13
15 2 13 28 29
15 2 13 29 14
15 2 14 29 30
15 2 14 30 15
15 2 15 30 31
15 2 15 31 0
15 2 0 31 16

boundary
32
1 1 1 0
2 1 16 17
1 1 2 1
2 1 17 18
1 1 3 2
2 1 18 19
1 1 4 3
2 1 19 20
1 1 5 4
2 1 20 21
1 1 6 5
2 1 21 22
1 1 7 6
2 1 22 23
1 1 8 7
2 1 23 24
1 1 9 8
2 1 24 25
1 1 10 9
2 1 25 26
1 1 11 10
2 1 26 27
1 1 12 11
2 1 27 28
1 1 13 12
2 1 28 29
1 1 14 13
2 1 29 30
1 1 15 14
2 1 30 31
1 1 0 15
2 1 31 16

vertices
32
2
1.00000000000000006e-01 0.00000000000000000e+00
9.23879532511286822e-02 3.82683432365089823e-02
7.07106781186547656e-02 7.07106781186547517e-02
3.82683432365089893e-02 9.23879532511286822e-02
6.12323399573676634e-18 1.00000000000000006e-01
-3.82683432365089754e-02 9.23879532511286822e-02
-7.07106781186547517e-02 7.07106781186547656e-02
-9.23879532511286822e-02 3.82683432365089893e-02
-1.00000000000000006e-01 1.22464679914735327e-17
-9.23879532511286961e-02 -3.82683432365089685e-02
-7.07106781186547656e-02 -7.07106781186547517e-02
-3.82683432365090379e-02 -9.23879532511286544e-02
-1.83697019872102975e-17 -1.00000000000000006e-01
3.82683432365090032e-02 -9.23879532511286683e-02
7.07106781186547378e-02 -7.07106781186547656e-02
9.23879532511286544e-02 -3.82683432365090448e-02
5.00000000000000000e-01 0.00000000000000000e+00
4.61939766255643369e-01 1.91341716182544891e-01
3.53553390593273786e-01 3.53553390593273731e-01
1.91341716182544919e-01 4.61939766255643369e-01
3.06161699786838302e-17 5.00000000000000000e-01
-1.91341716182544863e-01 4.61939766255643369e-01
-3.53553390593273731e-01 3.53553390593273786e-01
-4.61939766255643369e-01 1.91341716182544946e-01
-5.00000000000000000e-01 6.12323399573676604e-17
-4.61939766255643425e-01 -1.91341716182544835e-01
-3.53553390593273842e-01 -3.53553390593273731e-01
-1.91341716182545168e-01 -4.61939766255643258e-01
-9.18485099360514844e-17 -5.00000000000000000e-01
1.91341716182545002e-01 -4.61939766255643314e-01
3.53553390593273675e-01 -3.53553390593273842e-01
4.61939766255643258e-01 -1.91341716182545196e-01
